<svg version="1.1" id="Layer_1" xmlns="http://www.w3.org/2000/svg" xmlns:xlink="http://www.w3.org/1999/xlink" x="0px" y="0px"
	 width="100%" viewBox="0 0 512 512" enable-background="new 0 0 512 512" xml:space="preserve">
<path fill="#FFFFFF" opacity="1.000000" stroke="none" 
	d="
M215.000000,513.000000 
	C143.698700,513.000000 72.397400,513.000000 1.048050,513.000000 
	C1.048050,342.442017 1.048050,171.884018 1.048050,1.000000 
	C82.354477,1.000000 163.709381,1.000000 245.415100,1.369490 
	C221.099503,7.073371 202.359497,31.392981 205.869675,58.030094 
	C207.973618,73.996010 215.314423,86.162369 228.491669,95.099518 
	C239.569458,102.612770 251.510162,105.082649 264.875458,103.164803 
	C276.885773,101.441376 286.848755,96.137459 294.695312,87.541122 
	C305.344727,75.874069 310.232788,62.011280 308.118835,45.775414 
	C306.139282,30.571552 299.004944,18.628752 286.672363,10.160845 
	C280.791016,6.122546 273.598572,3.993738 267.000000,1.000002 
	C348.963257,1.000000 430.926514,1.000000 512.944885,1.000000 
	C512.944885,171.553452 512.944885,342.106934 512.944885,513.000000 
	C441.645599,513.000000 370.290649,513.000000 298.575378,512.638977 
	C309.385162,509.839264 317.098969,498.606140 317.084351,488.161133 
	C316.943512,387.672729 317.000000,287.184052 317.000000,186.695435 
	C317.000000,184.912064 317.000000,183.128677 317.000000,181.223022 
	C322.512512,181.223022 327.584015,181.223022 333.000000,181.223022 
	C333.000000,183.069351 333.000000,184.697662 333.000000,186.325974 
	C333.000000,220.322128 332.905670,254.318771 333.087402,288.313965 
	C333.119904,294.397156 334.038635,300.353973 337.872620,305.756653 
	C345.499359,316.503876 355.917419,318.816803 365.746826,316.531036 
	C377.986481,313.684784 385.109772,303.269135 385.066010,291.792328 
	C384.901428,248.631180 384.807281,205.467804 385.076508,162.307709 
	C385.224213,138.631348 365.799133,120.121674 342.851257,120.054176 
	C286.524780,119.888496 230.197495,120.004295 173.870544,119.995712 
	C164.637115,119.994301 155.897659,121.732498 148.090027,126.987907 
	C136.320801,134.909927 129.176117,145.771088 129.093506,160.085815 
	C128.837692,204.412659 128.874924,248.742523 129.090012,293.069794 
	C129.142227,303.835175 134.951721,311.489441 144.945541,315.356873 
	C154.428085,319.026398 163.419846,317.536102 171.418045,311.056061 
	C178.586639,305.248138 180.925003,297.260437 180.953964,288.536499 
	C181.066833,254.540726 181.000000,220.544357 181.000000,186.548203 
	C181.000000,184.778732 181.000000,183.009277 181.000000,181.275238 
	C186.619873,181.275238 191.692230,181.275238 197.000000,181.275238 
	C197.000000,183.356537 197.000000,185.164841 197.000000,186.973145 
	C197.000000,287.295105 197.017075,387.617096 196.963654,487.939026 
	C196.959885,495.024719 199.237457,501.100861 204.415939,505.755127 
	C207.568146,508.588257 211.447342,510.612457 215.000000,513.000000 
z"/>
<path fill="#000000" opacity="1.000000" stroke="none" 
	d="
M215.466125,513.000000 
	C211.447342,510.612457 207.568146,508.588257 204.415939,505.755127 
	C199.237457,501.100861 196.959885,495.024719 196.963654,487.939026 
	C197.017075,387.617096 197.000000,287.295105 197.000000,186.973145 
	C197.000000,185.164841 197.000000,183.356537 197.000000,181.275238 
	C191.692230,181.275238 186.619873,181.275238 181.000000,181.275238 
	C181.000000,183.009277 181.000000,184.778732 181.000000,186.548203 
	C181.000000,220.544357 181.066833,254.540726 180.953964,288.536499 
	C180.925003,297.260437 178.586639,305.248138 171.418045,311.056061 
	C163.419846,317.536102 154.428085,319.026398 144.945541,315.356873 
	C134.951721,311.489441 129.142227,303.835175 129.090012,293.069794 
	C128.874924,248.742523 128.837692,204.412659 129.093506,160.085815 
	C129.176117,145.771088 136.320801,134.909927 148.090027,126.987907 
	C155.897659,121.732498 164.637115,119.994301 173.870544,119.995712 
	C230.197495,120.004295 286.524780,119.888496 342.851257,120.054176 
	C365.799133,120.121674 385.224213,138.631348 385.076508,162.307709 
	C384.807281,205.467804 384.901428,248.631180 385.066010,291.792328 
	C385.109772,303.269135 377.986481,313.684784 365.746826,316.531036 
	C355.917419,318.816803 345.499359,316.503876 337.872620,305.756653 
	C334.038635,300.353973 333.119904,294.397156 333.087402,288.313965 
	C332.905670,254.318771 333.000000,220.322128 333.000000,186.325974 
	C333.000000,184.697662 333.000000,183.069351 333.000000,181.223022 
	C327.584015,181.223022 322.512512,181.223022 317.000000,181.223022 
	C317.000000,183.128677 317.000000,184.912064 317.000000,186.695435 
	C317.000000,287.184052 316.943512,387.672729 317.084351,488.161133 
	C317.098969,498.606140 309.385162,509.839264 298.107544,512.638977 
	C292.645081,513.000000 287.290131,513.000000 281.465729,512.624512 
	C280.783813,511.845673 280.672241,511.219574 280.344391,511.071136 
	C269.254669,506.050903 265.005432,496.960632 265.003693,485.353485 
	C264.995453,431.062012 265.000000,376.770508 265.000000,322.479034 
	C265.000000,320.717010 265.000000,318.954987 265.000000,317.294861 
	C259.336517,317.294861 254.266281,317.294861 249.000000,317.294861 
	C249.000000,319.400482 249.000000,321.212677 249.000000,323.024902 
	C249.000000,377.482910 249.024475,431.940979 248.937851,486.398865 
	C248.932770,489.593048 248.444885,492.919342 247.466965,495.953857 
	C244.674500,504.619202 238.120499,509.668396 230.000000,513.000000 
	C225.310745,513.000000 220.621490,513.000000 215.466125,513.000000 
z"/>
<path fill="#000000" opacity="1.000000" stroke="none" 
	d="
M266.531464,1.000002 
	C273.598572,3.993738 280.791016,6.122546 286.672363,10.160845 
	C299.004944,18.628752 306.139282,30.571552 308.118835,45.775414 
	C310.232788,62.011280 305.344727,75.874069 294.695312,87.541122 
	C286.848755,96.137459 276.885773,101.441376 264.875458,103.164803 
	C251.510162,105.082649 239.569458,102.612770 228.491669,95.099518 
	C215.314423,86.162369 207.973618,73.996010 205.869675,58.030094 
	C202.359497,31.392981 221.099503,7.073371 245.882950,1.369490 
	C252.687637,1.000000 259.375275,1.000000 266.531464,1.000002 
z"/>
<path fill="#FFFFFF" opacity="1.000000" stroke="none" 
	d="
M230.468658,513.000000 
	C238.120499,509.668396 244.674500,504.619202 247.466965,495.953857 
	C248.444885,492.919342 248.932770,489.593048 248.937851,486.398865 
	C249.024475,431.940979 249.000000,377.482910 249.000000,323.024902 
	C249.000000,321.212677 249.000000,319.400482 249.000000,317.294861 
	C254.266281,317.294861 259.336517,317.294861 265.000000,317.294861 
	C265.000000,318.954987 265.000000,320.717010 265.000000,322.479034 
	C265.000000,376.770508 264.995453,431.062012 265.003693,485.353485 
	C265.005432,496.960632 269.254669,506.050903 280.344391,511.071136 
	C280.672241,511.219574 280.783813,511.845673 280.998108,512.624512 
	C264.312439,513.000000 247.624878,513.000000 230.468658,513.000000 
z"/>
</svg>